<?xml version="1.0" encoding="UTF-8" standalone="no"?>
<!-- Created with Inkscape (http://www.inkscape.org/) -->

<svg
   width="180"
   height="36"
   viewBox="0 0 47.624999 9.525"
   version="1.1"
   id="svg1"
   xmlns="http://www.w3.org/2000/svg"
   xmlns:svg="http://www.w3.org/2000/svg">
  <defs
     id="defs1" />
  <g
     id="layer1">
    <path
       id="text1"
       style="font-size:9.87778px;fill:#000000;stroke-width:0.174139"
       d="m 28.310417,1.0448975 v 7.3292684 h 0.701249 V 1.0448975 Z M 19.12028,2.0422526 v 1.1456665 h -0.928626 v 0.5829102 h 0.928626 v 3.1414103 c 0,0.4807181 0.131917,0.8528037 0.395325,1.1162109 0.263407,0.2634072 0.638726,0.394808 1.126029,0.394808 0.204141,0 0.401759,-0.029617 0.592729,-0.088883 0.197555,-0.059267 0.365039,-0.1513505 0.503328,-0.2764689 L 21.491195,7.5540609 c -0.204141,0.1777998 -0.460992,0.2666504 -0.770496,0.2666504 -0.289748,0 -0.513749,-0.082384 -0.671794,-0.2470134 C 19.897446,7.4090684 19.821529,7.175367 19.821529,6.8724487 V 3.7708293 h 1.580782 V 3.1879191 H 19.821529 V 2.0422526 Z M 3.878833,3.1388265 c -0.5004737,0 -0.931793,0.1087673 -1.2939779,0.3260783 C 2.2917773,3.6354228 2.0669626,3.862516 1.903243,4.1408325 V 3.1879191 H 1.2314494 V 8.3741659 H 1.9332153 V 5.6477173 c 0,-0.3951108 0.072167,-0.7311129 0.217041,-1.0076904 C 2.3017155,4.3568641 2.5122667,4.1430795 2.7822591,3.9982056 3.0588367,3.8467464 3.3819054,3.7708293 3.7506755,3.7708293 c 0.4938885,0 0.8756741,0.1416175 1.1456665,0.4247802 0.2765775,0.2765776 0.4149617,0.6879801 0.4149617,1.23455 V 8.3741659 H 6.0125529 V 5.3614299 C 6.0125529,4.8609562 5.920469,4.4458036 5.736084,4.1165446 5.5582841,3.7872856 5.3078992,3.5438842 4.9852254,3.3858398 4.6691368,3.2212103 4.3002845,3.1388265 3.878833,3.1388265 Z m 6.0451091,0 c -0.4807182,0 -0.9152708,0.115234 -1.3037964,0.3457153 C 8.2382052,3.708438 7.9355701,4.0180565 7.711674,4.4131673 7.494363,4.8082781 7.3855957,5.2627476 7.3855957,5.7763916 c 0,0.513644 0.115234,0.9708301 0.3457153,1.372526 0.2304813,0.3951108 0.5497999,0.7079628 0.9580811,0.9384441 0.4082812,0.2238961 0.8821506,0.3358968 1.4221359,0.3358968 0.414866,0 0.793935,-0.072167 1.136364,-0.2170411 0.349015,-0.1448739 0.638717,-0.3559419 0.869198,-0.6325195 L 11.721765,7.1194621 c -0.197555,0.2304813 -0.43449,0.4017157 -0.711068,0.5136637 -0.269992,0.1119481 -0.562927,0.1679484 -0.879016,0.1679484 -0.4016957,0 -0.7608479,-0.082384 -1.0769365,-0.2470133 C 8.745241,7.3828462 8.5018396,7.1491448 8.3240397,6.8528117 8.1807196,6.5992453 8.100893,6.3115984 8.0775431,5.9934326 H 12.432833 V 5.8849121 c 0.0066,-0.039511 0.01033,-0.075595 0.01033,-0.1085205 0,-0.5202292 -0.108767,-0.977932 -0.326078,-1.3730428 C 11.899779,4.0016528 11.59986,3.6920342 11.21792,3.4747233 10.842565,3.2508272 10.411245,3.1388265 9.9239421,3.1388265 Z m 15.0554119,0 c -0.513644,0 -0.97458,0.1120007 -1.382861,0.3358968 -0.401696,0.2238961 -0.717782,0.5335147 -0.948263,0.9286255 -0.230481,0.3951108 -0.345715,0.8528136 -0.345715,1.3730428 0,0.513644 0.115234,0.9708301 0.345715,1.372526 0.230481,0.3951108 0.546567,0.7079628 0.948263,0.9384441 0.408281,0.2238961 0.869217,0.3358968 1.382861,0.3358968 0.441207,0 0.839159,-0.085617 1.194759,-0.2568319 0.3556,-0.1777999 0.635601,-0.4346514 0.839742,-0.7704956 L 26.490373,7.0403971 c -0.1778,0.2568221 -0.398568,0.4479732 -0.661975,0.5730917 -0.263408,0.1251184 -0.549876,0.1875854 -0.859379,0.1875854 -0.368771,0 -0.701022,-0.082384 -0.997356,-0.2470133 C 23.67533,7.3828462 23.441629,7.1459114 23.270414,6.8429932 23.0992,6.5400749 23.013582,6.1846728 23.013582,5.7763916 c 0,-0.4082812 0.08562,-0.7642 0.256832,-1.0671183 0.171215,-0.3029183 0.404916,-0.5366197 0.701249,-0.7012492 0.296334,-0.1712147 0.628585,-0.2568319 0.997356,-0.2568319 0.309503,0 0.595971,0.062467 0.859379,0.1875855 0.263407,0.1251184 0.484175,0.3195029 0.661975,0.5829101 L 27.013855,4.166154 C 26.809714,3.8237246 26.529713,3.566873 26.174113,3.3956584 25.818513,3.2244437 25.420561,3.1388265 24.979354,3.1388265 Z m 7.805725,0 c -0.408281,0 -0.796534,0.062467 -1.165304,0.1875854 -0.36877,0.1185333 -0.684855,0.2897677 -0.948262,0.5136638 l 0.315743,0.5234822 c 0.210726,-0.184385 0.467577,-0.3324692 0.770495,-0.4444173 0.302919,-0.111948 0.622237,-0.1679484 0.958082,-0.1679484 0.487303,0 0.852922,0.1184674 1.096573,0.3555339 0.250237,0.2370665 0.375688,0.5763019 0.375688,1.0175089 v 0.3162598 h -1.650028 c -0.493889,0 -0.888608,0.068934 -1.184941,0.2072225 -0.289748,0.1317036 -0.500816,0.3094046 -0.63252,0.5333008 -0.125118,0.2173109 -0.187585,0.4612291 -0.187585,0.7312215 0,0.2963331 0.07592,0.5596513 0.227376,0.7901326 0.151459,0.2238962 0.368477,0.4015972 0.65164,0.5333008 0.289748,0.1251184 0.628983,0.1875855 1.017509,0.1875855 0.493889,0 0.902058,-0.1017839 1.224732,-0.3059245 0.241109,-0.1494879 0.428099,-0.3370465 0.563273,-0.5606893 v 0.8175212 h 0.671793 V 5.1536906 c 0,-0.6782736 -0.184684,-1.1817599 -0.553454,-1.5110189 -0.362185,-0.3358442 -0.879122,-0.5038452 -1.55081,-0.5038452 z m 5.531445,0 c -0.441207,0 -0.816526,0.0657 -1.126029,0.197404 -0.302918,0.1251184 -0.533387,0.2995861 -0.691431,0.5234822 -0.158044,0.2238961 -0.236678,0.4775144 -0.236678,0.7606771 0,0.2963331 0.05923,0.5332679 0.177767,0.7110677 0.125118,0.1777999 0.286136,0.3194174 0.483691,0.4247803 0.197556,0.098778 0.41509,0.1746949 0.652157,0.2273763 0.243652,0.052681 0.487053,0.098982 0.730705,0.1384928 0.243651,0.039511 0.464419,0.088528 0.661975,0.1477946 0.197555,0.052682 0.355856,0.1350653 0.474389,0.2470134 0.125119,0.1053629 0.187586,0.2534471 0.187586,0.4444173 0,0.256822 -0.108767,0.4641399 -0.326078,0.6221842 -0.217311,0.1514592 -0.572713,0.2273763 -1.066602,0.2273763 -0.362185,0 -0.707887,-0.056 -1.037146,-0.1679484 C 36.871571,7.5244111 36.601269,7.3860269 36.390544,7.2279826 l -0.31626,0.5534546 c 0.217311,0.184385 0.517229,0.3389359 0.89917,0.4640543 0.38194,0.1185333 0.786876,0.177767 1.214913,0.177767 0.454377,0 0.839396,-0.059234 1.155485,-0.177767 0.322674,-0.1251184 0.566592,-0.2963528 0.731221,-0.5136637 0.171215,-0.2238961 0.256832,-0.4872144 0.256832,-0.7901327 0,-0.2831627 -0.06247,-0.5103974 -0.187585,-0.6816121 C 40.025786,6.0822831 39.864252,5.9471323 39.660111,5.8549398 39.462556,5.7561621 39.241788,5.6807617 38.998136,5.6280802 38.76107,5.5688136 38.520902,5.51928 38.27725,5.4797689 38.040184,5.4402578 37.819416,5.3907241 37.615275,5.3314575 37.41772,5.2656057 37.256702,5.1767552 37.131584,5.0648071 37.01305,4.9528591 36.953817,4.7983082 36.953817,4.6007528 c 0,-0.2502369 0.10825,-0.4543214 0.325561,-0.6123658 0.223896,-0.1646295 0.569598,-0.2470133 1.037146,-0.2470133 0.263407,0 0.527242,0.036084 0.79065,0.1085205 0.263407,0.065852 0.510042,0.1778525 0.740523,0.3358968 L 40.154138,3.6230347 C 39.936827,3.4781607 39.660059,3.3624099 39.324215,3.2768026 38.98837,3.1846101 38.652368,3.1388265 38.316524,3.1388265 Z m 4.820378,0 c -0.441207,0 -0.816526,0.0657 -1.12603,0.197404 -0.302918,0.1251184 -0.533386,0.2995861 -0.69143,0.5234822 -0.158045,0.2238961 -0.236678,0.4775144 -0.236678,0.7606771 0,0.2963331 0.05923,0.5332679 0.177767,0.7110677 0.125118,0.1777999 0.286136,0.3194174 0.483691,0.4247803 0.197555,0.098778 0.41509,0.1746949 0.652157,0.2273763 0.243651,0.052681 0.487053,0.098982 0.730704,0.1384928 0.243652,0.039511 0.46442,0.088528 0.661975,0.1477946 0.197556,0.052682 0.355857,0.1350653 0.47439,0.2470134 0.125119,0.1053629 0.187586,0.2534471 0.187586,0.4444173 0,0.256822 -0.108768,0.4641399 -0.326079,0.6221842 -0.217311,0.1514592 -0.572713,0.2273763 -1.066601,0.2273763 -0.362185,0 -0.708404,-0.056 -1.037663,-0.1679484 -0.329259,-0.1185332 -0.599044,-0.2569174 -0.80977,-0.4149617 l -0.31626,0.5534546 c 0.217311,0.184385 0.51723,0.3389359 0.89917,0.4640543 0.381941,0.1185333 0.786877,0.177767 1.214913,0.177767 0.454378,0 0.839397,-0.059234 1.155485,-0.177767 0.322674,-0.1251184 0.566592,-0.2963528 0.731222,-0.5136637 0.171215,-0.2238961 0.256832,-0.4872144 0.256832,-0.7901327 0,-0.2831627 -0.06247,-0.5103974 -0.187586,-0.6816121 C 44.846164,6.0822831 44.68463,5.9471323 44.480489,5.8549398 44.282934,5.7561621 44.062166,5.6807617 43.818514,5.6280802 43.581448,5.5688136 43.341279,5.51928 43.097628,5.4797689 42.860561,5.4402578 42.639793,5.3907241 42.435653,5.3314575 42.238097,5.2656057 42.07708,5.1767552 41.951961,5.0648071 41.833428,4.9528591 41.774194,4.7983082 41.774194,4.6007528 c 0,-0.2502369 0.108251,-0.4543214 0.325562,-0.6123658 0.223896,-0.1646295 0.569598,-0.2470133 1.037146,-0.2470133 0.263407,0 0.527242,0.036084 0.790649,0.1085205 0.263407,0.065852 0.510042,0.1778525 0.740524,0.3358968 L 44.974516,3.6230347 C 44.757205,3.4781607 44.480436,3.3624099 44.144592,3.2768026 43.808748,3.1846101 43.472746,3.1388265 43.136902,3.1388265 Z m -30.101522,0.049093 1.955953,2.5212931 -2.054655,2.6649537 h 0.790133 l 1.655196,-2.1698934 1.654162,2.1698934 h 0.799952 L 15.763896,5.7102458 17.717782,3.1879191 H 16.947286 L 15.38304,5.2136353 13.826029,3.1879191 Z M 9.9239421,3.7413737 c 0.3621849,0 0.6815039,0.082384 0.9580809,0.2470133 0.276578,0.1646295 0.494112,0.3950976 0.652157,0.6914307 0.133429,0.2348362 0.20984,0.4990622 0.235127,0.7901327 H 8.0790934 C 8.1047653,5.1798638 8.1780961,4.9156737 8.3038859,4.6798177 8.4619302,4.3834846 8.6826983,4.1530165 8.965861,3.988387 9.2490237,3.8237575 9.5683423,3.7413737 9.9239421,3.7413737 Z M 32.558219,5.9639771 h 1.629875 v 0.8495605 c -0.131704,0.3424294 -0.342772,0.6057476 -0.632519,0.7901326 -0.283163,0.1777999 -0.622399,0.2666504 -1.017509,0.2666504 -0.414867,0 -0.737419,-0.088851 -0.9679,-0.2666504 -0.230481,-0.1777998 -0.345715,-0.4152513 -0.345715,-0.7115844 0,-0.2634072 0.09532,-0.4836585 0.286287,-0.6614584 0.197556,-0.1777998 0.547008,-0.2666503 1.047481,-0.2666503 z m 13.947469,1.3828613 c -0.144873,0 -0.270324,0.049017 -0.375687,0.1477946 -0.09878,0.098778 -0.148312,0.2274618 -0.148312,0.3855062 0,0.1514591 0.04953,0.2796265 0.148312,0.3849894 0.105363,0.1053629 0.230814,0.1581299 0.375687,0.1581299 0.144874,0 0.266575,-0.052767 0.365353,-0.1581299 0.105363,-0.1053629 0.15813,-0.2335303 0.15813,-0.3849894 0,-0.1580444 -0.05277,-0.2867285 -0.15813,-0.3855062 -0.09878,-0.098778 -0.220479,-0.1477946 -0.365353,-0.1477946 z" />
  </g>
</svg>
