<?xml version="1.0" encoding="UTF-8" standalone="no"?>
<!-- Created with Inkscape (http://www.inkscape.org/) -->

<svg
   width="180"
   height="36"
   viewBox="0 0 47.624999 9.525"
   version="1.1"
   id="svg1"
   inkscape:export-filename="logo.svg"
   inkscape:export-xdpi="72"
   inkscape:export-ydpi="72"
   sodipodi:docname="logo.svg"
   xmlns:inkscape="http://www.inkscape.org/namespaces/inkscape"
   xmlns:sodipodi="http://sodipodi.sourceforge.net/DTD/sodipodi-0.dtd"
   xmlns="http://www.w3.org/2000/svg"
   xmlns:svg="http://www.w3.org/2000/svg">
  <sodipodi:namedview
     id="namedview1"
     pagecolor="#ffffff"
     bordercolor="#000000"
     borderopacity="0.25"
     inkscape:showpageshadow="2"
     inkscape:pageopacity="0.0"
     inkscape:pagecheckerboard="0"
     inkscape:deskcolor="#d1d1d1"
     inkscape:document-units="mm"
     inkscape:export-bgcolor="#ffffff00" />
  <defs
     id="defs1" />
  <g
     inkscape:label="Layer 1"
     inkscape:groupmode="layer"
     id="layer1">
    <path
       style="-inkscape-font-specification:Montserrat;stroke-width:0.174139"
       d="m 3.8788849,3.1387705 c 0.4214519,0 0.7902224,0.082315 1.1063113,0.2469445 C 5.3078703,3.5437595 5.5581074,3.7874114 5.7359075,4.1166707 5.9202927,4.44593 6.0124853,4.8607968 6.0124853,5.361271 V 8.3739939 H 5.311163 V 5.4304154 C 5.311163,4.8838449 5.1728741,4.4722708 4.8962962,4.195693 4.6263035,3.9125299 4.2443627,3.7709484 3.7504737,3.7709484 c -0.3687704,0 -0.6914445,0.07573 -0.9680224,0.227189 C 2.5124586,4.1430115 2.3017327,4.35703 2.1502734,4.640193 2.0053993,4.9167709 1.9329622,5.2526154 1.9329622,5.6477266 V 8.3739939 H 1.2316398 V 3.1881594 L 1.8921934,2.9286275 1.9033289,4.6105597 1.7946733,4.3438596 C 1.959303,3.968504 2.2227104,3.6754632 2.5848957,3.4647372 2.947081,3.2474261 3.3784107,3.1387705 3.8788849,3.1387705 Z M 10.11177,8.4233828 c -0.5399853,0 -1.0141187,-0.1119482 -1.4224002,-0.3358445 C 8.2810882,7.8570568 7.9617066,7.5442604 7.7312251,7.1491492 7.5007436,6.7474528 7.3855028,6.2897823 7.3855028,5.7761377 c 0,-0.5136445 0.1086556,-0.9680224 0.3259668,-1.3631336 0.2238963,-0.3951112 0.5268149,-0.704615 0.9087557,-0.9285113 0.388526,-0.2304815 0.8231483,-0.3457223 1.303867,-0.3457223 0.4873037,0 0.9186337,0.1119482 1.2939887,0.3358445 0.381941,0.2173112 0.681567,0.526815 0.898878,0.9285113 0.217311,0.3951112 0.325967,0.8527817 0.325967,1.3730114 0,0.032926 -0.0033,0.069145 -0.0099,0.1086556 V 5.9934489 H 7.918903 V 5.4699266 h 4.13879 l -0.276578,0.2074333 c 0,-0.3753556 -0.08231,-0.7079075 -0.246945,-0.9976557 C 11.376126,4.3833708 11.158815,4.1528893 10.882237,3.9882596 10.605659,3.8236299 10.286277,3.7413151 9.9240923,3.7413151 c -0.3556001,0 -0.6749816,0.082315 -0.9581447,0.2469445 C 8.6827846,4.1528893 8.4621809,4.3833708 8.3041364,4.6797042 8.1460919,4.9760376 8.0670697,5.3151747 8.0670697,5.6971155 v 0.1086556 c 0,0.3951112 0.085607,0.7441261 0.2568222,1.0470447 0.1778001,0.2963334 0.421452,0.5301075 0.7309557,0.7013223 0.316089,0.1646297 0.6749818,0.2469445 1.0766784,0.2469445 0.316089,0 0.609129,-0.055974 0.879122,-0.1679222 0.276578,-0.1119482 0.513645,-0.2831631 0.7112,-0.5136446 l 0.395111,0.4543779 C 11.886478,7.8504716 11.59673,8.0611975 11.247715,8.2060716 10.905285,8.3509457 10.526637,8.4233828 10.11177,8.4233828 Z M 12.936823,8.3739939 15.12969,5.5291932 15.119812,5.8749155 13.0356,3.1881594 h 0.790223 l 1.708856,2.2225005 -0.296334,-0.00988 1.708856,-2.2126227 h 0.770467 l -2.103967,2.7163895 0.0099,-0.3753557 2.212623,2.8448007 h -0.800101 l -1.807633,-2.3706672 0.276577,0.039511 -1.778,2.3311561 z m 7.704672,0.049389 c -0.487304,0 -0.86266,-0.1317037 -1.126067,-0.3951112 C 19.252021,7.7648642 19.120317,7.3928011 19.120317,6.9120824 V 2.0423369 h 0.701322 v 4.8302344 c 0,0.3029186 0.07573,0.5366927 0.227189,0.7013224 0.158045,0.1646297 0.381941,0.2469445 0.671689,0.2469445 0.309504,0 0.566326,-0.0889 0.770467,-0.2667001 l 0.246944,0.5037668 c -0.138289,0.1251185 -0.306211,0.2173112 -0.503766,0.2765779 -0.190971,0.059267 -0.388526,0.0889 -0.592667,0.0889 z m -2.44969,-4.6524344 v -0.582789 h 3.210279 v 0.582789 z m 6.787345,4.6524344 c -0.513645,0 -0.974608,-0.1119482 -1.382889,-0.3358445 C 23.194564,7.8570568 22.878475,7.5442604 22.647994,7.1491492 22.417513,6.7474528 22.302272,6.2897823 22.302272,5.7761377 c 0,-0.5202297 0.115241,-0.9779002 0.345722,-1.3730114 0.230481,-0.3951112 0.54657,-0.704615 0.948267,-0.9285113 0.408281,-0.2238963 0.869244,-0.3358445 1.382889,-0.3358445 0.441207,0 0.839611,0.085607 1.195212,0.2568223 0.3556,0.1712149 0.63547,0.4280371 0.839611,0.7704668 L 26.490451,4.5216597 C 26.312651,4.2582522 26.092047,4.0639892 25.828639,3.9388707 25.565232,3.8137522 25.278776,3.7511929 24.969272,3.7511929 c -0.36877,0 -0.701322,0.085607 -0.997655,0.2568222 -0.296333,0.1646297 -0.530108,0.3984038 -0.701323,0.7013224 -0.171215,0.3029186 -0.256822,0.6585187 -0.256822,1.0668002 0,0.4082816 0.08561,0.7638817 0.256822,1.0668003 0.171215,0.3029186 0.40499,0.5399853 0.701323,0.7112001 0.296333,0.1646297 0.628885,0.2469445 0.997655,0.2469445 0.309504,0 0.59596,-0.062559 0.859367,-0.1876778 0.263408,-0.1251185 0.484012,-0.3160889 0.661812,-0.5729112 l 0.523522,0.3556001 C 26.809832,7.7319382 26.529962,7.9887604 26.174362,8.1665605 25.818761,8.3377754 25.420357,8.4233828 24.97915,8.4233829 Z m 3.331433,-0.049389 V 1.0446811 h 0.701322 v 7.3293128 z m 5.906904,0 V 7.2281714 L 34.187853,7.0404936 V 5.1242043 c 0,-0.4412075 -0.125118,-0.7803447 -0.375355,-1.0174114 -0.243652,-0.2370667 -0.60913,-0.3556 -1.096434,-0.3556 -0.335845,0 -0.655226,0.055974 -0.958144,0.1679222 C 31.455001,4.0310633 31.198179,4.17923 30.987453,4.3636152 L 30.671364,3.8400929 c 0.263407,-0.2238963 0.579496,-0.3951112 0.948267,-0.5136446 0.36877,-0.1251185 0.757296,-0.1876778 1.165578,-0.1876778 0.671689,0 1.188626,0.1679223 1.550811,0.5037668 0.368771,0.3292593 0.553156,0.8330261 0.553156,1.5113003 v 3.2201563 z m -1.787878,0.049389 c -0.388526,0 -0.727663,-0.062559 -1.017412,-0.1876778 C 31.129034,8.1040014 30.911723,7.9262013 30.760264,7.7023049 30.608805,7.4718234 30.533075,7.2084159 30.533075,6.9120825 c 0,-0.2699926 0.06256,-0.5136445 0.187678,-0.7309557 0.131703,-0.2238963 0.342429,-0.4016964 0.632178,-0.5334001 0.296333,-0.1382889 0.691444,-0.2074334 1.185333,-0.2074334 h 1.787878 V 5.9638156 H 32.55802 c -0.500475,0 -0.84949,0.0889 -1.047045,0.2667 -0.190971,0.1778001 -0.286456,0.3984038 -0.286456,0.6618113 0,0.2963334 0.115241,0.5334001 0.345723,0.7112001 0.230481,0.1778001 0.553155,0.2667001 0.968022,0.2667001 0.395111,0 0.734248,-0.0889 1.017411,-0.2667001 0.289749,-0.1843852 0.500475,-0.4477927 0.632178,-0.7902224 l 0.158045,0.4840113 c -0.131704,0.3424297 -0.362186,0.6157149 -0.691445,0.8198557 -0.322674,0.2041408 -0.730955,0.3062112 -1.224844,0.3062113 z m 5.758747,0 c -0.428037,0 -0.833026,-0.059267 -1.214967,-0.1778001 C 36.591448,8.1204642 36.291822,7.9657123 36.074511,7.7813271 L 36.3906,7.2281714 c 0.210726,0.1580445 0.480719,0.2963334 0.809978,0.4148668 0.329259,0.1119481 0.674982,0.1679222 1.037167,0.1679222 0.493889,0 0.84949,-0.07573 1.066801,-0.2271889 0.217311,-0.1580445 0.325966,-0.3654779 0.325966,-0.6223002 0,-0.1909704 -0.06256,-0.3391371 -0.187678,-0.4445001 C 39.324301,6.4050231 39.166256,6.3227082 38.968701,6.2700267 38.771146,6.21076 38.550542,6.1613711 38.30689,6.12186 38.063238,6.0823489 37.819586,6.0362526 37.575934,5.9835711 37.338867,5.9308896 37.121556,5.85516 36.924001,5.7563822 36.726445,5.6510192 36.565108,5.5094377 36.439989,5.3316376 c -0.118533,-0.1778 -0.1778,-0.4148667 -0.1778,-0.7112001 0,-0.283163 0.07902,-0.5366927 0.237067,-0.7605891 0.158045,-0.2238963 0.388526,-0.3984038 0.691445,-0.5235223 0.309503,-0.1317037 0.684859,-0.1975556 1.126067,-0.1975556 0.335844,0 0.671688,0.046096 1.007533,0.1382889 0.335845,0.085607 0.612423,0.2008482 0.829734,0.3457223 L 39.847823,4.1858152 C 39.617342,4.0277707 39.370397,3.9158226 39.10699,3.8499707 38.843583,3.7775336 38.580175,3.7413151 38.316768,3.7413151 c -0.467549,0 -0.813271,0.082315 -1.037167,0.2469445 -0.217311,0.1580445 -0.325967,0.3621852 -0.325967,0.6124223 0,0.1975556 0.05927,0.3523075 0.1778,0.4642557 0.125119,0.1119481 0.286456,0.2008481 0.484011,0.2667 0.204141,0.059267 0.424744,0.1086556 0.661811,0.1481667 0.243652,0.039511 0.484011,0.0889 0.721078,0.1481667 0.243652,0.052681 0.464256,0.128411 0.661812,0.227189 0.204141,0.092193 0.365478,0.2271889 0.484011,0.404989 0.125119,0.1712148 0.187678,0.3984037 0.187678,0.6815668 0,0.3029186 -0.08561,0.5663261 -0.256823,0.7902224 -0.164629,0.2173111 -0.408281,0.388526 -0.730955,0.5136445 -0.316089,0.1185334 -0.701323,0.1778001 -1.155701,0.1778002 z m 4.820366,0 c -0.428037,0 -0.833026,-0.059267 -1.214967,-0.1778001 C 41.411814,8.1204643 41.112188,7.9657124 40.894877,7.7813272 l 0.316089,-0.5531557 c 0.210726,0.1580445 0.480719,0.2963334 0.809978,0.4148668 0.329259,0.1119481 0.674982,0.1679222 1.037167,0.1679222 0.493889,0 0.849489,-0.07573 1.0668,-0.2271889 0.217311,-0.1580445 0.325967,-0.3654779 0.325967,-0.6223002 0,-0.1909704 -0.06256,-0.3391371 -0.187678,-0.4445001 C 44.144667,6.4050231 43.986622,6.3227082 43.789067,6.2700267 43.591512,6.21076 43.370908,6.1613711 43.127256,6.12186 42.883604,6.0823489 42.639952,6.0362526 42.3963,5.9835711 42.159233,5.9308896 41.941922,5.85516 41.744366,5.7563822 41.546811,5.6510192 41.385474,5.5094377 41.260355,5.3316376 c -0.118533,-0.1778 -0.1778,-0.4148667 -0.1778,-0.7112001 0,-0.283163 0.07902,-0.5366927 0.237067,-0.7605891 0.158045,-0.2238963 0.388526,-0.3984038 0.691445,-0.5235223 0.309503,-0.1317037 0.684859,-0.1975556 1.126066,-0.1975556 0.335845,0 0.671689,0.046096 1.007534,0.1382889 0.335845,0.085607 0.612423,0.2008482 0.829734,0.3457223 L 44.668189,4.1858152 C 44.437708,4.0277707 44.190763,3.9158226 43.927356,3.8499707 43.663949,3.7775336 43.400541,3.7413151 43.137133,3.7413151 c -0.467548,0 -0.81327,0.082315 -1.037166,0.2469445 C 41.882656,4.1463041 41.774,4.3504448 41.774,4.6006819 c 0,0.1975556 0.05927,0.3523075 0.1778,0.4642557 0.125119,0.1119481 0.286456,0.2008481 0.484011,0.2667 0.204141,0.059267 0.424744,0.1086556 0.661811,0.1481667 0.243652,0.039511 0.484011,0.0889 0.721078,0.1481667 0.243652,0.052681 0.464256,0.128411 0.661812,0.227189 0.204141,0.092193 0.365478,0.2271889 0.484011,0.404989 0.125119,0.1712148 0.187678,0.3984037 0.187678,0.6815668 0,0.3029186 -0.08561,0.5663261 -0.256823,0.7902224 -0.164629,0.2173111 -0.408281,0.388526 -0.730955,0.5136445 -0.316089,0.1185334 -0.701323,0.1778001 -1.155701,0.1778002 z m 3.496744,0 c -0.144874,0 -0.269993,-0.052682 -0.375356,-0.1580445 -0.09878,-0.105363 -0.148167,-0.2337741 -0.148167,-0.3852334 0,-0.1580445 0.04939,-0.2864556 0.148167,-0.3852334 0.105363,-0.098778 0.230482,-0.1481667 0.375356,-0.1481667 0.144874,0 0.2667,0.049389 0.365478,0.1481667 0.105363,0.098778 0.158044,0.2271889 0.158044,0.3852334 0,0.1514593 -0.05268,0.2798704 -0.158044,0.3852334 -0.09878,0.105363 -0.220604,0.1580445 -0.365478,0.1580445 z"
       id="text1"
       aria-label="nextclass."
       sodipodi:nodetypes="sccsccscsccscccccccssccsccsccscccccccssssssccsccccscccccccccccccccccsssccscscccscccccsccsscssccsscssscsscccsccccccccscsscccscsccsccsccsccscsssccccssccccscsccscccsscsccccscsccccccsccssccccscsccscccsscsccccscsccccccsccsscscscscs" />
  </g>
</svg>
