<?xml version="1.0" ?><svg id="Layer_1" style="enable-background:new 0 0 50 50;" version="1.1" viewBox="0 0 50 50" xml:space="preserve" xmlns="http://www.w3.org/2000/svg" xmlns:xlink="http://www.w3.org/1999/xlink"><style type="text/css">
	.st0{fill:#F0C4DB;}
	.st1{fill:#FF9D9C;}
	.st2{fill:#9BEAF9;}
	.st3{fill:#E9F4BC;}
	.st4{fill:#505050;}
	.st5{fill:#FEBECC;}
	.st6{fill:#FFFFFF;}
	.st7{fill:#FDE4A1;}
	.st8{fill:#FEE7B5;}
	.st9{fill:#CDF6FC;}
	.st10{fill:#F2C6DD;}
	.st11{opacity:0.1;}
</style><g><path class="st8" d="M48.88,32.31c-2.78-2.17-6.28-3.48-10.08-3.48c-9.07,0-16.42,7.35-16.42,16.42c0,1.21,0.14,2.39,0.39,3.53   h26.11V32.31z"/><g><g><g><path class="st3" d="M26.64,21.81v-2.7l-3.87-0.73c-0.21-0.89-0.56-1.71-1.02-2.46l2.22-3.25l-1.91-1.92l-3.25,2.23      c-0.75-0.47-1.58-0.81-2.47-1.02l-0.73-3.88h-2.7l-0.73,3.88c-0.88,0.21-1.71,0.55-2.47,1.02l-3.25-2.23l-1.91,1.92l2.22,3.25      c-0.46,0.75-0.81,1.57-1.02,2.46l-3.87,0.73v2.7l3.87,0.73c0.21,0.88,0.56,1.71,1.02,2.46l-2.22,3.26l1.91,1.91l3.26-2.22      c0.75,0.46,1.58,0.81,2.46,1.02l0.73,3.87h2.7l0.73-3.87c0.89-0.21,1.71-0.56,2.46-1.02l3.26,2.22l1.91-1.91L21.75,25      c0.46-0.75,0.81-1.58,1.02-2.46L26.64,21.81z M14.26,26.53c-3.35,0-6.07-2.72-6.07-6.07c0-3.35,2.72-6.07,6.07-6.07      c3.35,0,6.07,2.72,6.07,6.07C20.33,23.81,17.61,26.53,14.26,26.53z"/></g></g><g><path class="st1" d="M47.88,37.34v-2.6l-3.72-0.7c-0.2-0.85-0.54-1.65-0.98-2.37l2.13-3.14l-1.83-1.84l-3.14,2.14     c-0.72-0.44-1.52-0.78-2.37-0.98l-0.71-3.73h-2.6l-0.71,3.73c-0.85,0.2-1.65,0.54-2.37,0.98l-3.14-2.14l-1.83,1.84l2.13,3.14     c-0.44,0.72-0.78,1.52-0.98,2.37l-3.72,0.7v2.6l3.72,0.71c0.2,0.85,0.54,1.64,0.98,2.37l-2.13,3.14l1.83,1.84l3.15-2.14     c0.72,0.44,1.51,0.78,2.36,0.98l0.71,3.73h2.6l0.71-3.73c0.85-0.2,1.64-0.54,2.36-0.98l3.15,2.14l1.83-1.84l-2.13-3.14     c0.44-0.73,0.78-1.52,0.98-2.37L47.88,37.34z M35.96,41.27c-2.88,0-5.22-2.34-5.22-5.23c0-2.88,2.34-5.22,5.22-5.22     c2.88,0,5.22,2.34,5.22,5.22C41.18,38.93,38.84,41.27,35.96,41.27z"/></g><g><path class="st2" d="M47.14,11.92V9.96l-2.8-0.53c-0.15-0.64-0.4-1.24-0.74-1.78l1.61-2.36l-1.38-1.38l-2.36,1.61     c-0.54-0.34-1.14-0.59-1.78-0.74l-0.53-2.81H37.2l-0.53,2.81c-0.64,0.15-1.24,0.4-1.78,0.74l-2.36-1.61l-1.38,1.38l1.6,2.36     c-0.33,0.54-0.58,1.14-0.73,1.78l-2.8,0.53v1.96l2.8,0.53c0.15,0.63,0.4,1.23,0.73,1.78l-1.6,2.36l1.38,1.38l2.36-1.61     c0.55,0.34,1.14,0.59,1.78,0.74l0.53,2.81h1.96l0.53-2.81c0.64-0.15,1.23-0.4,1.78-0.74l2.36,1.61l1.38-1.38l-1.61-2.36     c0.34-0.55,0.59-1.15,0.74-1.78L47.14,11.92z M38.18,14.17c-1.78,0-3.23-1.45-3.23-3.23c0-1.79,1.45-3.23,3.23-3.23     s3.23,1.44,3.23,3.23C41.41,12.72,39.96,14.17,38.18,14.17z"/></g><g><path class="st4" d="M24.58,27.84l-1.95-2.87c0.31-0.57,0.56-1.16,0.74-1.78l3.4-0.64c0.35-0.07,0.61-0.38,0.61-0.74v-2.7     c0-0.36-0.26-0.67-0.61-0.74l-3.4-0.64c-0.18-0.61-0.43-1.21-0.74-1.78l1.95-2.86c0.2-0.3,0.17-0.7-0.09-0.95l-1.91-1.92     c-0.26-0.26-0.66-0.29-0.96-0.09l-2.86,1.96c-0.57-0.31-1.16-0.55-1.78-0.74l-0.64-3.41c-0.07-0.35-0.38-0.61-0.74-0.61h-2.7     c-0.36,0-0.67,0.26-0.74,0.61l-0.64,3.41c-0.62,0.18-1.22,0.43-1.78,0.74l-2.86-1.96c-0.3-0.2-0.7-0.17-0.96,0.09l-1.91,1.92     c-0.25,0.25-0.29,0.65-0.09,0.95l1.95,2.86c-0.31,0.57-0.55,1.16-0.74,1.78l-3.4,0.64c-0.35,0.07-0.61,0.38-0.61,0.74v2.7     c0,0.36,0.26,0.67,0.61,0.74l3.4,0.64c0.18,0.62,0.43,1.21,0.74,1.78l-1.95,2.87c-0.2,0.3-0.17,0.7,0.09,0.95l1.91,1.91     c0.25,0.25,0.66,0.29,0.95,0.09l2.87-1.95c0.57,0.31,1.16,0.56,1.78,0.74l0.64,3.41c0.07,0.35,0.38,0.61,0.74,0.61h2.7     c0.36,0,0.67-0.26,0.74-0.61l0.64-3.41c0.62-0.18,1.21-0.43,1.78-0.74l2.87,1.95c0.3,0.2,0.7,0.17,0.95-0.09l1.91-1.91     C24.75,28.53,24.78,28.13,24.58,27.84z M21.96,29.2l-2.75-1.87c-0.24-0.17-0.56-0.17-0.82-0.02c-0.7,0.43-1.45,0.74-2.24,0.93     c-0.29,0.07-0.51,0.3-0.56,0.59l-0.62,3.26h-1.46l-0.62-3.26c-0.05-0.29-0.28-0.52-0.56-0.59c-0.79-0.19-1.54-0.5-2.24-0.93     c-0.25-0.15-0.57-0.15-0.82,0.02L6.54,29.2l-1.03-1.03l1.87-2.75c0.17-0.24,0.17-0.56,0.02-0.81c-0.43-0.7-0.74-1.45-0.93-2.24     c-0.07-0.29-0.3-0.51-0.59-0.56l-3.26-0.61v-1.46l3.26-0.61c0.29-0.05,0.52-0.28,0.59-0.56c0.19-0.79,0.5-1.54,0.93-2.24     c0.16-0.25,0.15-0.57-0.02-0.82l-1.87-2.74l1.03-1.03l2.74,1.87c0.25,0.17,0.57,0.17,0.82,0.02c0.69-0.43,1.45-0.74,2.25-0.93     c0.29-0.07,0.51-0.3,0.56-0.59l0.62-3.26h1.46l0.62,3.26c0.05,0.29,0.28,0.52,0.56,0.59c0.8,0.19,1.55,0.5,2.25,0.93     c0.25,0.15,0.57,0.15,0.82-0.02l2.74-1.87l1.03,1.03l-1.87,2.74c-0.17,0.24-0.17,0.56-0.02,0.82c0.43,0.7,0.74,1.45,0.93,2.24     c0.07,0.29,0.3,0.51,0.59,0.56l3.26,0.61v1.46l-3.26,0.61c-0.29,0.05-0.52,0.28-0.59,0.56c-0.19,0.79-0.5,1.54-0.93,2.24     c-0.16,0.25-0.15,0.57,0.02,0.81l1.87,2.75L21.96,29.2z"/><path class="st4" d="M14.25,13.64c-3.76,0-6.82,3.06-6.82,6.82s3.06,6.82,6.82,6.82s6.82-3.06,6.82-6.82S18.01,13.64,14.25,13.64     z M19.5,19.71h-1.64c-0.3-1.43-1.42-2.55-2.85-2.85v-1.64C17.33,15.55,19.16,17.38,19.5,19.71z M14.25,22.64     c-1.2,0-2.18-0.98-2.18-2.18c0-1.2,0.98-2.18,2.18-2.18s2.18,0.98,2.18,2.18C16.43,21.66,15.46,22.64,14.25,22.64z M13.5,15.22     v1.64c-1.43,0.3-2.55,1.42-2.85,2.85H9.01C9.34,17.38,11.17,15.55,13.5,15.22z M9.01,21.21h1.64c0.3,1.43,1.42,2.56,2.85,2.85     v1.64C11.17,25.37,9.34,23.54,9.01,21.21z M15,25.7v-1.64c1.43-0.3,2.55-1.42,2.85-2.85h1.64C19.16,23.54,17.33,25.37,15,25.7z"/><path class="st4" d="M48.01,34l-3.26-0.62c-0.17-0.58-0.41-1.15-0.7-1.69l1.87-2.75c0.2-0.3,0.17-0.7-0.09-0.95L44,26.16     c-0.26-0.26-0.66-0.29-0.96-0.09l-2.74,1.88c-0.54-0.29-1.1-0.52-1.69-0.7l-0.62-3.27c-0.07-0.35-0.38-0.61-0.74-0.61h-2.6     c-0.36,0-0.67,0.26-0.74,0.61l-0.62,3.27c-0.59,0.17-1.15,0.41-1.69,0.7l-2.74-1.88c-0.3-0.2-0.7-0.17-0.96,0.09L26.07,28     c-0.25,0.25-0.29,0.65-0.09,0.95l1.87,2.75c-0.29,0.54-0.53,1.1-0.7,1.69L23.89,34c-0.35,0.07-0.61,0.38-0.61,0.74v2.6     c0,0.36,0.26,0.67,0.61,0.74l3.26,0.62c0.17,0.58,0.41,1.15,0.7,1.69l-1.87,2.75c-0.2,0.3-0.17,0.7,0.09,0.95l1.84,1.84     c0.25,0.25,0.66,0.29,0.95,0.09l2.75-1.87c0.54,0.29,1.1,0.53,1.69,0.7l0.62,3.27c0.07,0.35,0.38,0.61,0.74,0.61h2.6     c0.36,0,0.67-0.26,0.74-0.61l0.62-3.27c0.58-0.17,1.15-0.41,1.69-0.7l2.75,1.87c0.3,0.2,0.7,0.17,0.95-0.09l1.84-1.84     c0.25-0.25,0.29-0.65,0.09-0.95l-1.87-2.75c0.29-0.54,0.53-1.1,0.7-1.69l3.26-0.62c0.35-0.07,0.61-0.38,0.61-0.74v-2.6     C48.63,34.38,48.37,34.07,48.01,34z M47.13,36.72l-3.12,0.59c-0.29,0.05-0.52,0.28-0.59,0.56c-0.18,0.76-0.48,1.48-0.89,2.15     c-0.16,0.25-0.15,0.57,0.02,0.81l1.79,2.63l-0.96,0.96l-2.63-1.79c-0.24-0.17-0.56-0.17-0.81-0.02     c-0.67,0.41-1.39,0.71-2.15,0.89c-0.29,0.07-0.51,0.3-0.56,0.59l-0.59,3.12h-1.36l-0.59-3.12c-0.05-0.29-0.28-0.52-0.56-0.59     c-0.76-0.18-1.48-0.48-2.15-0.89c-0.25-0.16-0.57-0.15-0.81,0.02l-2.63,1.79l-0.96-0.96l1.79-2.63c0.17-0.24,0.17-0.56,0.02-0.81     c-0.41-0.67-0.71-1.39-0.89-2.15c-0.07-0.29-0.3-0.51-0.59-0.56l-3.12-0.59v-1.36l3.12-0.59c0.29-0.05,0.52-0.28,0.59-0.56     c0.18-0.76,0.48-1.48,0.89-2.15c0.16-0.25,0.15-0.57-0.02-0.82l-1.79-2.62l0.96-0.96l2.62,1.79c0.25,0.17,0.56,0.18,0.82,0.02     c0.67-0.41,1.39-0.71,2.16-0.89c0.29-0.07,0.51-0.3,0.56-0.59l0.59-3.12h1.36l0.59,3.12c0.05,0.29,0.28,0.52,0.56,0.59     c0.76,0.18,1.49,0.48,2.16,0.89c0.25,0.16,0.57,0.15,0.82-0.02l2.62-1.79l0.96,0.96l-1.79,2.62c-0.17,0.24-0.17,0.56-0.02,0.82     c0.41,0.67,0.71,1.39,0.89,2.15c0.07,0.29,0.3,0.51,0.59,0.56l3.12,0.59V36.72z"/><path class="st4" d="M35.95,30.07c-3.29,0-5.97,2.68-5.97,5.97s2.68,5.97,5.97,5.97s5.97-2.68,5.97-5.97S39.24,30.07,35.95,30.07     z M35.95,40.52c-2.47,0-4.47-2.01-4.47-4.47s2.01-4.47,4.47-4.47s4.47,2.01,4.47,4.47S38.42,40.52,35.95,40.52z"/><path class="st4" d="M29.07,12.65l2.34,0.44c0.12,0.38,0.27,0.74,0.45,1.09l-1.34,1.98c-0.2,0.3-0.17,0.7,0.09,0.95l1.38,1.38     c0.25,0.25,0.66,0.29,0.95,0.09l1.98-1.35c0.35,0.18,0.72,0.33,1.09,0.45l0.44,2.35c0.07,0.35,0.38,0.61,0.74,0.61h1.96     c0.36,0,0.67-0.26,0.74-0.61l0.44-2.35c0.38-0.12,0.74-0.27,1.09-0.45l1.98,1.35c0.3,0.2,0.7,0.17,0.95-0.09l1.38-1.38     c0.25-0.25,0.29-0.65,0.09-0.95l-1.34-1.98c0.18-0.35,0.33-0.72,0.45-1.09l2.34-0.44c0.35-0.07,0.61-0.38,0.61-0.74V9.96     c0-0.36-0.26-0.67-0.61-0.74l-2.34-0.44c-0.12-0.38-0.27-0.74-0.45-1.09l1.34-1.97c0.2-0.3,0.17-0.7-0.09-0.95l-1.38-1.39     c-0.25-0.26-0.66-0.29-0.96-0.09l-1.97,1.35c-0.35-0.18-0.72-0.33-1.1-0.45l-0.44-2.35c-0.07-0.35-0.38-0.61-0.74-0.61h-1.96     c-0.36,0-0.67,0.26-0.74,0.61l-0.44,2.35c-0.38,0.12-0.75,0.27-1.1,0.45l-1.97-1.35c-0.3-0.2-0.7-0.17-0.96,0.09l-1.38,1.39     c-0.25,0.25-0.29,0.65-0.09,0.95l1.34,1.97c-0.18,0.35-0.33,0.72-0.45,1.09l-2.34,0.44c-0.35,0.07-0.61,0.38-0.61,0.74v1.96     C28.46,12.28,28.71,12.59,29.07,12.65z M29.96,10.58l2.19-0.41c0.29-0.05,0.52-0.28,0.59-0.56c0.13-0.55,0.35-1.08,0.65-1.56     c0.16-0.25,0.15-0.57-0.02-0.82l-1.26-1.84l0.5-0.51l1.84,1.26c0.24,0.17,0.56,0.18,0.82,0.02c0.48-0.3,1.01-0.52,1.57-0.65     c0.29-0.07,0.51-0.3,0.56-0.59l0.41-2.2h0.71l0.41,2.2C39,5.21,39.22,5.44,39.5,5.51c0.55,0.13,1.08,0.35,1.57,0.65     c0.25,0.15,0.57,0.15,0.82-0.02l1.84-1.26l0.5,0.51l-1.26,1.84c-0.17,0.24-0.17,0.56-0.02,0.82c0.3,0.49,0.52,1.01,0.65,1.56     c0.07,0.29,0.3,0.51,0.59,0.56l2.19,0.41v0.71l-2.19,0.41c-0.29,0.05-0.52,0.28-0.59,0.56c-0.13,0.55-0.35,1.07-0.65,1.56     c-0.16,0.25-0.15,0.57,0.02,0.81l1.26,1.85l-0.5,0.5l-1.85-1.26c-0.24-0.17-0.56-0.17-0.81-0.02c-0.49,0.3-1.01,0.52-1.56,0.65     c-0.29,0.07-0.51,0.3-0.56,0.59l-0.41,2.2h-0.71l-0.41-2.19c-0.05-0.29-0.28-0.52-0.56-0.59c-0.55-0.13-1.07-0.35-1.56-0.65     c-0.25-0.15-0.57-0.15-0.82,0.02L32.61,17l-0.5-0.5l1.26-1.85c0.17-0.24,0.17-0.56,0.02-0.81c-0.3-0.48-0.52-1.01-0.65-1.56     c-0.07-0.29-0.3-0.51-0.59-0.56l-2.19-0.41V10.58z"/><path class="st4" d="M38.17,14.92c2.2,0,3.98-1.79,3.98-3.98s-1.79-3.98-3.98-3.98s-3.98,1.79-3.98,3.98S35.97,14.92,38.17,14.92     z M38.17,8.46c1.37,0,2.48,1.11,2.48,2.48s-1.11,2.48-2.48,2.48s-2.48-1.11-2.48-2.48S36.8,8.46,38.17,8.46z"/></g></g></g></svg>