<?xml version="1.0" ?><svg id="Info" style="enable-background:new 0 0 32 32;" version="1.1" viewBox="0 0 32 32" xml:space="preserve" xmlns="http://www.w3.org/2000/svg" xmlns:xlink="http://www.w3.org/1999/xlink"><style type="text/css">
	.st0{fill:#E4EDF2;}
	.st1{fill:#55C1FA;}
</style><g><path class="st0" d="M25.899,6.111c-5.392-5.39-14.218-5.446-19.674-0.124C1.6,10.498,0.682,17.652,3.966,23.162l-1.039,3.876   c-0.156,0.58,0.005,1.181,0.43,1.605c0.424,0.425,1.023,0.585,1.604,0.43l3.878-1.039c2.199,1.31,4.667,1.948,7.127,1.948   c3.631,0,7.243-1.394,9.932-4.081C28.544,23.259,30,19.744,30,16.006C30,12.268,28.544,8.754,25.899,6.111z M19.453,25.127h-6.906   c-0.552,0-1-0.447-1-1s0.448-1,1-1H15v-7.665h-2.453c-0.552,0-1-0.448-1-1s0.448-1,1-1H16c0.552,0,1,0.448,1,1v8.665h2.453   c0.553,0,1,0.447,1,1S20.006,25.127,19.453,25.127z M16,6.873c1.542,0,2.796,1.254,2.796,2.795S17.542,12.462,16,12.462   c-1.542,0-2.796-1.253-2.796-2.794S14.458,6.873,16,6.873z"/><path class="st1" d="M16,12.462c1.542,0,2.796-1.253,2.796-2.794S17.542,6.873,16,6.873c-1.542,0-2.796,1.254-2.796,2.795   S14.458,12.462,16,12.462z"/><path class="st1" d="M19.453,23.127H17v-8.665c0-0.552-0.448-1-1-1h-3.453c-0.552,0-1,0.448-1,1s0.448,1,1,1H15v7.665h-2.453   c-0.552,0-1,0.447-1,1s0.448,1,1,1h6.906c0.553,0,1-0.447,1-1S20.006,23.127,19.453,23.127z"/></g></svg>