<?xml version="1.0" encoding="UTF-8" standalone="no"?>
<!-- Created with Inkscape (http://www.inkscape.org/) -->

<svg
   width="180"
   height="36"
   viewBox="0 0 47.624999 9.525"
   version="1.1"
   id="svg1"
   inkscape:export-filename="logo.png"
   inkscape:export-xdpi="72"
   inkscape:export-ydpi="72"
   sodipodi:docname="logo.svg"
   xmlns:inkscape="http://www.inkscape.org/namespaces/inkscape"
   xmlns:sodipodi="http://sodipodi.sourceforge.net/DTD/sodipodi-0.dtd"
   xmlns="http://www.w3.org/2000/svg"
   xmlns:svg="http://www.w3.org/2000/svg">
  <sodipodi:namedview
     id="namedview1"
     pagecolor="#ffffff"
     bordercolor="#000000"
     borderopacity="0.25"
     inkscape:showpageshadow="2"
     inkscape:pageopacity="0.0"
     inkscape:pagecheckerboard="0"
     inkscape:deskcolor="#d1d1d1"
     inkscape:document-units="mm"
     inkscape:export-bgcolor="#ffffff00" />
  <defs
     id="defs1" />
  <g
     inkscape:label="Layer 1"
     inkscape:groupmode="layer"
     id="layer1">
    <path
       style="font-size:9.87778px;font-family:Montserrat;-inkscape-font-specification:Montserrat;stroke-width:0.174139"
       d="m 3.8788849,3.1387705 q 0.6321779,0 1.1063113,0.2469445 0.4840112,0.2370667 0.7507113,0.7309557 0.2765778,0.493889 0.2765778,1.2446003 V 8.3739939 H 5.311163 V 5.4304154 q 0,-0.8198557 -0.4148668,-1.2347224 -0.404989,-0.4247446 -1.1458225,-0.4247446 -0.5531556,0 -0.9680224,0.227189 Q 2.3774623,4.2154485 2.1502734,4.640193 1.9329622,5.0550598 1.9329622,5.6477266 V 8.3739939 H 1.2316398 V 3.1881594 H 1.9033289 V 4.6105597 L 1.7946733,4.3438596 Q 2.0416178,3.7808262 2.5848957,3.4647372 3.1281736,3.1387705 3.8788849,3.1387705 Z M 10.11177,8.4233828 q -0.8099779,0 -1.4224002,-0.3358445 Q 8.0769474,7.741816 7.7312251,7.1491492 7.3855028,6.5466046 7.3855028,5.7761377 q 0,-0.7704668 0.3259668,-1.3631336 0.3358445,-0.5926668 0.9087557,-0.9285113 0.582789,-0.3457223 1.303867,-0.3457223 0.7309557,0 1.2939887,0.3358445 0.572912,0.3259668 0.898878,0.9285113 0.325967,0.5926668 0.325967,1.3730114 0,0.049389 -0.0099,0.1086556 0,0.049389 0,0.1086556 H 7.918903 V 5.4699266 h 4.13879 l -0.276578,0.2074333 q 0,-0.5630334 -0.246945,-0.9976557 Q 11.297104,4.2352041 10.882237,3.9882596 10.46737,3.7413151 9.9240923,3.7413151 q -0.5334001,0 -0.9581447,0.2469445 Q 8.5412031,4.2352041 8.3041364,4.6797042 8.0670697,5.1242043 8.0670697,5.6971155 v 0.1086556 q 0,0.5926668 0.2568222,1.0470447 0.2667001,0.4445001 0.7309557,0.7013223 0.4741335,0.2469445 1.0766784,0.2469445 0.474133,0 0.879122,-0.1679222 0.414867,-0.1679223 0.7112,-0.5136446 l 0.395111,0.4543779 Q 11.771237,7.9887605 11.247715,8.2060716 10.73407,8.4233828 10.11177,8.4233828 Z M 12.936823,8.3739939 15.12969,5.5291932 15.119812,5.8749155 13.0356,3.1881594 h 0.790223 l 1.708856,2.2225005 -0.296334,-0.00988 1.708856,-2.2126227 h 0.770467 l -2.103967,2.7163895 0.0099,-0.3753557 2.212623,2.8448007 h -0.800101 l -1.807633,-2.3706672 0.276577,0.039511 -1.778,2.3311561 z m 7.704672,0.049389 q -0.730956,0 -1.126067,-0.3951112 Q 19.120317,7.6331604 19.120317,6.9120824 V 2.0423369 h 0.701322 v 4.8302344 q 0,0.4543779 0.227189,0.7013224 0.237067,0.2469445 0.671689,0.2469445 0.464256,0 0.770467,-0.2667001 l 0.246944,0.5037668 q -0.207433,0.1876778 -0.503766,0.2765779 -0.286456,0.0889 -0.592667,0.0889 z m -2.44969,-4.6524344 v -0.582789 h 3.210279 v 0.582789 z m 6.787345,4.6524344 q -0.770467,0 -1.382889,-0.3358445 Q 22.993716,7.741816 22.647994,7.1491492 22.302272,6.5466046 22.302272,5.7761377 q 0,-0.7803446 0.345722,-1.3730114 0.345722,-0.5926668 0.948267,-0.9285113 0.612422,-0.3358445 1.382889,-0.3358445 0.661811,0 1.195212,0.2568223 0.5334,0.2568223 0.839611,0.7704668 l -0.523522,0.3556001 q -0.2667,-0.3951112 -0.661812,-0.582789 -0.395111,-0.1876778 -0.859367,-0.1876778 -0.553155,0 -0.997655,0.2568222 -0.4445,0.2469445 -0.701323,0.7013224 -0.256822,0.4543779 -0.256822,1.0668002 0,0.6124224 0.256822,1.0668003 0.256823,0.4543779 0.701323,0.7112001 0.4445,0.2469445 0.997655,0.2469445 0.464256,0 0.859367,-0.1876778 0.395112,-0.1876778 0.661812,-0.5729112 l 0.523522,0.3556001 Q 26.707762,7.8998604 26.174362,8.1665605 25.640961,8.4233828 24.97915,8.4233829 Z m 3.331433,-0.049389 V 1.0446811 h 0.701322 v 7.3293128 z m 5.906904,0 V 7.2281714 L 34.187853,7.0404936 V 5.1242043 q 0,-0.6618113 -0.375355,-1.0174114 -0.365478,-0.3556 -1.096434,-0.3556 -0.503767,0 -0.958144,0.1679222 -0.454378,0.1679223 -0.770467,0.4445001 L 30.671364,3.8400929 q 0.395111,-0.3358445 0.948267,-0.5136446 0.553155,-0.1876778 1.165578,-0.1876778 1.007533,0 1.550811,0.5037668 0.553156,0.493889 0.553156,1.5113003 v 3.2201563 z m -1.787878,0.049389 q -0.582789,0 -1.017412,-0.1876778 -0.424744,-0.1975556 -0.651933,-0.5334002 -0.227189,-0.3457223 -0.227189,-0.7902224 0,-0.4049889 0.187678,-0.7309557 0.197555,-0.3358445 0.632178,-0.5334001 0.4445,-0.2074334 1.185333,-0.2074334 h 1.787878 V 5.9638156 H 32.55802 q -0.750712,0 -1.047045,0.2667 -0.286456,0.2667001 -0.286456,0.6618113 0,0.4445001 0.345723,0.7112001 0.345722,0.2667001 0.968022,0.2667001 0.592667,0 1.017411,-0.2667001 0.434623,-0.2765778 0.632178,-0.7902224 l 0.158045,0.4840113 q -0.197556,0.5136445 -0.691445,0.8198557 -0.484011,0.3062112 -1.224844,0.3062113 z m 5.758747,0 q -0.642055,0 -1.214967,-0.1778001 Q 36.400478,8.0579049 36.074511,7.7813271 L 36.3906,7.2281714 q 0.316089,0.2370667 0.809978,0.4148668 0.493889,0.1679222 1.037167,0.1679222 0.740834,0 1.066801,-0.2271889 0.325966,-0.2370667 0.325966,-0.6223002 0,-0.2864556 -0.187678,-0.4445001 Q 39.265034,6.349049 38.968701,6.2700267 38.672368,6.1811267 38.30689,6.12186 37.941412,6.0625934 37.575934,5.9835711 37.220334,5.9045489 36.924001,5.7563822 36.627667,5.5983377 36.439989,5.3316376 q -0.1778,-0.2667 -0.1778,-0.7112001 0,-0.4247445 0.237067,-0.7605891 0.237067,-0.3358445 0.691445,-0.5235223 0.464255,-0.1975556 1.126067,-0.1975556 0.503766,0 1.007533,0.1382889 0.503767,0.1284112 0.829734,0.3457223 L 39.847823,4.1858152 Q 39.502101,3.9487485 39.10699,3.8499707 38.711879,3.7413151 38.316768,3.7413151 q -0.701323,0 -1.037167,0.2469445 -0.325967,0.2370667 -0.325967,0.6124223 0,0.2963334 0.1778,0.4642557 0.187678,0.1679222 0.484011,0.2667 0.306211,0.0889 0.661811,0.1481667 0.365478,0.059267 0.721078,0.1481667 0.365478,0.079022 0.661812,0.227189 0.306211,0.1382889 0.484011,0.404989 0.187678,0.2568222 0.187678,0.6815668 0,0.4543779 -0.256823,0.7902224 -0.246944,0.3259667 -0.730955,0.5136445 -0.474134,0.1778001 -1.155701,0.1778002 z m 4.820366,0 q -0.642055,0 -1.214967,-0.1778001 Q 41.220844,8.057905 40.894877,7.7813272 l 0.316089,-0.5531557 q 0.316089,0.2370667 0.809978,0.4148668 0.493889,0.1679222 1.037167,0.1679222 0.740834,0 1.0668,-0.2271889 0.325967,-0.2370667 0.325967,-0.6223002 0,-0.2864556 -0.187678,-0.4445001 Q 44.0854,6.349049 43.789067,6.2700267 43.492734,6.1811267 43.127256,6.12186 42.761778,6.0625934 42.3963,5.9835711 42.0407,5.9045489 41.744366,5.7563822 41.448033,5.5983377 41.260355,5.3316376 q -0.1778,-0.2667 -0.1778,-0.7112001 0,-0.4247445 0.237067,-0.7605891 0.237067,-0.3358445 0.691445,-0.5235223 0.464255,-0.1975556 1.126066,-0.1975556 0.503767,0 1.007534,0.1382889 0.503767,0.1284112 0.829734,0.3457223 L 44.668189,4.1858152 Q 44.322467,3.9487485 43.927356,3.8499707 43.532245,3.7413151 43.137133,3.7413151 q -0.701322,0 -1.037166,0.2469445 Q 41.774,4.2253263 41.774,4.6006819 q 0,0.2963334 0.1778,0.4642557 0.187678,0.1679222 0.484011,0.2667 0.306211,0.0889 0.661811,0.1481667 0.365478,0.059267 0.721078,0.1481667 0.365478,0.079022 0.661812,0.227189 0.306211,0.1382889 0.484011,0.404989 0.187678,0.2568222 0.187678,0.6815668 0,0.4543779 -0.256823,0.7902224 -0.246944,0.3259667 -0.730955,0.5136445 -0.474134,0.1778001 -1.155701,0.1778002 z m 3.496744,0 q -0.217311,0 -0.375356,-0.1580445 -0.148167,-0.1580445 -0.148167,-0.3852334 0,-0.2370667 0.148167,-0.3852334 0.158045,-0.1481667 0.375356,-0.1481667 0.217311,0 0.365478,0.1481667 0.158044,0.1481667 0.158044,0.3852334 0,0.2271889 -0.158044,0.3852334 -0.148167,0.1580445 -0.365478,0.1580445 z"
       id="text1"
       aria-label="nextclass." />
  </g>
</svg>
